<svg xmlns="http://www.w3.org/2000/svg" viewBox="0 0 128 128" width="128" height="128" role="img" aria-label="Dos clientes">
  <defs>
    <linearGradient id="cuerpo" x1="22" y1="18" x2="106" y2="112" gradientUnits="userSpaceOnUse">
      <stop offset="0" stop-color="#ffd79a"/><stop offset=".52" stop-color="#f9b25e"/><stop offset="1" stop-color="#e98a2f"/>
    </linearGradient>
    <linearGradient id="brillo" x1="30" y1="22" x2="72" y2="64" gradientUnits="userSpaceOnUse">
      <stop offset="0" stop-color="#fff" stop-opacity=".75"/><stop offset="1" stop-color="#fff" stop-opacity="0"/>
    </linearGradient>
    <linearGradient id="simbolo" x1="40" y1="30" x2="92" y2="96" gradientUnits="userSpaceOnUse">
      <stop offset="0" stop-color="#fff"/><stop offset="1" stop-color="#e3edf0"/>
    </linearGradient>
    <radialGradient id="piso" cx="0" cy="0" r="1" gradientTransform="translate(64 112) scale(38 8)" gradientUnits="userSpaceOnUse">
      <stop offset="0" stop-color="#0d2b2f" stop-opacity=".28"/><stop offset="1" stop-color="#0d2b2f" stop-opacity="0"/>
    </radialGradient>
  </defs>
  <ellipse cx="64" cy="112" rx="38" ry="8" fill="url(#piso)"/>
  <rect x="20" y="16" width="88" height="88" rx="26" fill="url(#cuerpo)"/>
  <rect x="20" y="16" width="88" height="88" rx="26" fill="url(#brillo)"/>
  <rect x="24" y="20" width="80" height="80" rx="23" fill="none" stroke="#fff" stroke-opacity=".38" stroke-width="2"/>
  <g fill="url(#simbolo)">
    <circle cx="79" cy="46" r="10" fill-opacity=".72"/>
    <path d="M79 60c-9 0-16 5-18 14 11 5 25 5 36 0-2-9-9-14-18-14z" fill-opacity=".72"/>
    <circle cx="52" cy="52" r="13"/>
    <path d="M52 70c-12 0-21 7-23 18 14 7 32 7 46 0-2-11-11-18-23-18z"/>
  </g>
  <circle cx="98" cy="30" r="10" fill="#2fb39a"/>
  <circle cx="95" cy="27" r="4" fill="#fff" fill-opacity=".45"/>
</svg>
