<svg xmlns="http://www.w3.org/2000/svg" viewBox="0 0 120 120" role="img" aria-label="Peces">
  <rect width="120" height="120" fill="#e6f3fb"/>
  <circle cx="60" cy="106" r="34" fill="#cfe8f7"/>
  <path d="M0 84q18-8 34 0t32 0 34 0v36H0z" fill="#bfe0f4"/>
  <path d="M84 58q-12-16-30-10T34 68q4 16 22 20t28-14z" fill="#f39200"/>
  <path d="M86 56l20-12-4 26 18 6-30 6z" fill="#e07c00"/>
  <path d="M52 42q10-10 18 2" fill="none" stroke="#e07c00" stroke-width="5" stroke-linecap="round"/>
  <circle cx="50" cy="64" r="4.4" fill="#1f2a33"/>
  <circle cx="51.6" cy="62.4" r="1.5" fill="#fff"/>
  <g fill="none" stroke="#f9c37a" stroke-width="2.6" stroke-linecap="round"><path d="M62 56q6 10 0 22M72 58q6 10 0 18"/></g>
  <g fill="#9fd3ef"><circle cx="26" cy="42" r="5"/><circle cx="34" cy="28" r="3.4"/><circle cx="22" cy="24" r="2.4"/></g>
</svg>
