<?xml version="1.0" encoding="utf-8"?>
<!-- Generator: Adobe Illustrator 24.1.3, SVG Export Plug-In . SVG Version: 6.00 Build 0)  -->
<svg version="1.1" id="Capa_1" xmlns="http://www.w3.org/2000/svg" xmlns:xlink="http://www.w3.org/1999/xlink" x="0px" y="0px"
	 viewBox="0 0 800 800" style="enable-background:new 0 0 800 800;" xml:space="preserve">
<path d="M784.4,376.4L731,308.2l12.2-85.6v-0.1c2-15.6-6.7-30.8-21.3-36.8l-80.2-32l-32.2-80.4c-6-14.7-21.1-23.5-36.9-21.3
	L487,64.2l-67.8-53.1c-12.5-9.9-30.2-9.9-42.7,0.1l-67.9,53.1L223,52.1c-15.7-2.1-30.9,6.7-36.8,21.4L154,153.8l-80.1,31.9h-0.1
	c-14.6,6-23.3,21.1-21.3,36.8l12.2,85.7l-53.4,68.2c-9.6,12.5-9.6,29.9,0,42.4l53.4,68.1l-12.2,85.3c-2.4,15.9,6.4,31.2,21.4,37
	l80.1,32.2l32.2,80.1c5.9,14.8,21.1,23.6,36.9,21.4l85.6-12.2l67.9,53.4c6,4.7,13.6,7.2,21.2,7.2h0.1c7.6,0,15.2-2.6,21.2-7.2
	l68-53.5l85.5,12.2c15.7,2.3,30.9-6.4,36.9-21.1l32.2-80.3l80.1-32.2c14.8-5.9,23.6-21.1,21.4-36.9L731,486.9l53.4-68.2
	C794,406.3,794,388.9,784.4,376.4z M660.6,482.1l10.5,73.2l-68.9,27.4c-8.7,3.5-15.7,10.6-19,19.3l-27.6,68.6l-73.3-10.5
	c-9.3-1.3-18.9,1.4-26.1,7.2L398,712.9l-58.2-45.5c-6-4.8-13.6-7.5-21.3-7.6h-0.1c-1.1,0-2.1,0.1-2.9,0.2c-0.3,0-0.5,0.1-0.7,0.1
	h-0.6L240,670.7L212.6,602c-3.5-8.8-10.5-15.8-19.3-19.3l-68.7-27.4l10.5-73.2c1.3-9.3-1.2-18.6-6.9-26.1l-45.9-58.5l45.8-58.2
	l0.1-0.1c5.7-7.5,8.1-16.7,6.8-26.1l-10.5-73.2l68.6-27.6c8.8-3.4,15.8-10.3,19.3-19.1l27.4-68.7l73.4,10.2
	c9.3,1.4,18.9-1.1,26.3-6.9L397.9,82l58.2,45.8c7.4,5.8,17,8.3,26.2,6.9l73.2-10.3l27.7,68.7c3.5,8.6,10.4,15.6,19,19l68.9,27.7
	L660.6,313c-1.4,9.3,1.1,18.9,6.9,26.3l45.8,58.2l-45.8,58.4C661.7,463.3,659.2,472.9,660.6,482.1z"/>
<path d="M385.8,288.9c0-51.4-41.8-93.2-93.2-93.2s-93.2,41.8-93.2,93.2s41.8,93.2,93.2,93.2S385.8,340.2,385.8,288.9z M316.2,288.9
	c0,13-10.6,23.6-23.6,23.6c-13,0-23.6-10.6-23.6-23.6c0-13,10.6-23.6,23.6-23.6C305.5,265.3,316.2,275.8,316.2,288.9z"/>
<path d="M515.4,410c-51.4,0-93.2,41.8-93.2,93.2s41.8,93.2,93.2,93.2s93.2-41.8,93.2-93.2S566.8,410,515.4,410z M539,503.2
	c0,13-10.6,23.6-23.6,23.6s-23.6-10.6-23.6-23.6s10.6-23.6,23.6-23.6S539,490.2,539,503.2z"/>
<path d="M574.7,240.2c-14.3-15.8-38.8-17.2-54.7-2.9L228.2,499.9c-15.8,14.3-17.2,38.8-2.9,54.7c7,7.7,16.4,12.2,26.7,12.8
	c0.7,0,1.5,0.1,2.1,0.1c9.4,0,18.5-3.4,25.6-9.8l292.1-262.9C587.6,280.6,589,256,574.7,240.2z"/>
</svg>
