<?xml version="1.0" encoding="utf-8"?>
<svg version="1.1" xmlns="http://www.w3.org/2000/svg" xmlns:xlink="http://www.w3.org/1999/xlink" x="0px" y="0px"
	 viewBox="0 0 800 800" style="enable-background:new 0 0 800 800;" xml:space="preserve">
<g>
	<path d="M649.8,764c-23.7,0-42.8-19.2-42.8-42.8c0-114.1-92.9-207-207-207s-207,92.9-207,207c0,23.7-19.2,42.8-42.8,42.8
		c-23.7,0-42.8-19.2-42.8-42.8c0-78.2,30.4-151.6,85.7-206.9c55.3-55.3,128.8-85.7,206.9-85.7s151.6,30.4,206.9,85.7
		c55.3,55.3,85.7,128.8,85.7,206.9C692.6,744.8,673.5,764,649.8,764z M400,407.1c-102.3,0-185.6-83.2-185.6-185.6
		C214.4,119.2,297.7,36,400,36c102.3,0,185.6,83.2,185.6,185.6C585.6,323.9,502.3,407.1,400,407.1z M400,121.6
		c-55.1,0-99.9,44.8-99.9,99.9s44.8,99.9,99.9,99.9c55.1,0,99.9-44.8,99.9-99.9S455.1,121.6,400,121.6z"/>
</g>
</svg>
